<svg width="720" height="695" viewBox="0 0 720 695" fill="none" xmlns="http://www.w3.org/2000/svg">
<path d="M627.507 318.439C626.777 316.833 626.031 315.219 625.26 313.61C625.052 313.161 625.226 312.616 625.675 312.408C626.124 312.2 626.67 312.374 626.878 312.823C627.665 314.441 628.427 316.065 629.147 317.686C629.355 318.135 629.156 318.687 628.691 318.886C628.414 319.023 628.092 318.983 627.852 318.84C627.693 318.744 627.578 318.611 627.491 318.429L627.507 318.439ZM624.513 308.011C623.706 306.425 622.884 304.83 622.036 303.241C621.802 302.798 621.257 302.624 620.805 302.873C620.362 303.107 620.204 303.662 620.437 304.104C621.269 305.684 622.101 307.263 622.892 308.84C622.972 308.996 623.087 309.13 623.23 309.215C623.486 309.368 623.817 309.393 624.104 309.239C624.546 309.006 624.737 308.47 624.503 308.027L624.513 308.011ZM639.205 348.875C639.413 348.999 639.668 349.043 639.932 348.963C640.41 348.815 640.69 348.311 640.542 347.833C640.019 346.135 639.48 344.427 638.926 342.71C638.778 342.232 638.255 341.985 637.777 342.132C637.299 342.28 637.051 342.803 637.199 343.281C637.763 344.982 638.286 346.68 638.793 348.369C638.851 348.598 639.004 348.776 639.196 348.891L639.205 348.875ZM549.258 485.937C548.474 484.386 547.693 482.794 546.915 481.16C546.707 480.711 546.171 480.52 545.706 480.719C545.257 480.927 545.066 481.463 545.265 481.928C546.049 483.587 546.837 485.205 547.621 486.756C547.701 486.912 547.825 487.03 547.969 487.116C548.224 487.268 548.556 487.293 548.842 487.139C549.285 486.906 549.459 486.36 549.242 485.927L549.258 485.937ZM619.445 298.553C618.578 296.996 617.685 295.446 616.767 293.901C616.508 293.465 615.96 293.332 615.533 293.575C615.097 293.834 614.964 294.383 615.207 294.81C616.109 296.344 617.001 297.895 617.862 299.427C617.951 299.567 618.06 299.675 618.188 299.751C618.459 299.913 618.8 299.922 619.087 299.769C619.513 299.525 619.672 298.97 619.429 298.544L619.445 298.553ZM635.857 338.712C636.081 338.846 636.361 338.884 636.619 338.778C637.091 338.605 637.329 338.097 637.172 337.636C636.572 335.957 635.973 334.278 635.332 332.596C635.15 332.141 634.626 331.893 634.171 332.076C633.699 332.249 633.468 332.781 633.65 333.237C634.275 334.909 634.884 336.572 635.484 338.251C635.551 338.464 635.698 338.617 635.873 338.722L635.857 338.712ZM542.688 471.382C542.505 470.926 541.972 470.694 541.517 470.877C541.061 471.06 540.83 471.592 541.012 472.048C541.685 473.749 542.386 475.402 543.075 477.004C543.161 477.186 543.292 477.329 543.436 477.415C543.675 477.558 543.981 477.589 544.249 477.467C544.714 477.269 544.92 476.742 544.722 476.277C544.033 474.675 543.348 473.032 542.681 471.356L542.688 471.382ZM631.69 328.255C631.767 328.453 631.898 328.596 632.057 328.691C632.296 328.834 632.587 328.856 632.861 328.76C633.316 328.577 633.548 328.044 633.365 327.589C632.705 325.939 632.004 324.286 631.302 322.633C631.12 322.177 630.578 321.962 630.113 322.16C629.647 322.359 629.441 322.885 629.64 323.35C630.351 324.987 631.036 326.631 631.68 328.271L631.69 328.255ZM538.961 461.383C538.788 460.911 538.29 460.657 537.803 460.821C537.331 460.994 537.077 461.491 537.241 461.979C537.837 463.699 538.452 465.387 539.055 467.025C539.132 467.222 539.269 467.391 539.429 467.486C539.652 467.62 539.933 467.657 540.207 467.561C540.678 467.388 540.91 466.855 540.727 466.4C540.125 464.762 539.516 463.1 538.919 461.379L538.961 461.383ZM641.032 469.199C640.503 470.919 639.952 472.603 639.378 474.252C639.239 474.667 639.405 475.113 639.772 475.332C639.82 475.361 639.884 475.399 639.932 475.427C640.394 475.595 640.914 475.343 641.082 474.88C641.665 473.215 642.235 471.499 642.774 469.763C642.926 469.291 642.664 468.788 642.175 468.627C641.703 468.475 641.191 468.753 641.039 469.225L641.032 469.199ZM637.52 479.248C636.87 480.916 636.172 482.556 635.477 484.155C635.286 484.582 635.45 485.07 635.833 485.298C635.865 485.317 635.897 485.336 635.928 485.355C636.388 485.565 636.92 485.363 637.113 484.894C637.843 483.273 638.526 481.624 639.195 479.924C639.379 479.47 639.145 478.919 638.682 478.751C638.213 478.558 637.704 478.795 637.51 479.264L637.52 479.248ZM613.988 289.275C613.051 287.763 612.098 286.241 611.12 284.725C610.851 284.305 610.293 284.188 609.873 284.457C609.453 284.725 609.336 285.283 609.604 285.704C610.567 287.21 611.529 288.715 612.45 290.218C612.524 290.349 612.642 290.441 612.754 290.508C613.025 290.67 613.391 290.672 613.688 290.503C614.108 290.234 614.241 289.686 613.982 289.249L613.988 289.275ZM643.836 458.923C643.422 460.668 642.976 462.393 642.524 464.093C642.419 464.485 642.605 464.899 642.94 465.099C643.004 465.138 643.084 465.185 643.167 465.191C643.648 465.328 644.145 465.04 644.281 464.558C644.743 462.842 645.189 461.117 645.597 459.347C645.717 458.856 645.42 458.375 644.928 458.255C644.437 458.134 643.957 458.432 643.836 458.923ZM633.216 488.953C632.413 490.552 631.578 492.132 630.739 493.644C630.491 494.059 630.642 494.604 631.073 494.861L631.089 494.871C631.52 495.128 632.074 494.961 632.316 494.521C633.173 492.976 634.018 491.381 634.84 489.75C635.066 489.3 634.874 488.753 634.44 488.537C633.99 488.311 633.451 488.488 633.226 488.937L633.216 488.953ZM644.967 453.731C644.889 454.117 645.068 454.506 645.387 454.696C645.467 454.744 645.562 454.801 645.671 454.801C646.156 454.896 646.646 454.582 646.741 454.097C647.104 452.366 647.429 450.59 647.737 448.804C647.816 448.31 647.493 447.835 646.999 447.756C646.505 447.678 646.03 448.001 645.952 448.495C645.652 450.265 645.305 452.006 644.967 453.731ZM648.777 411.362C648.777 411.687 648.956 411.967 649.212 412.119C649.355 412.205 649.518 412.259 649.693 412.255C650.194 412.251 650.591 411.839 650.587 411.339C650.561 409.57 650.513 407.766 650.44 405.968C650.419 405.458 649.998 405.076 649.504 405.106C648.994 405.126 648.612 405.547 648.642 406.041C648.715 407.839 648.767 409.602 648.792 411.371L648.777 411.362ZM648.021 432.67C647.987 433.018 648.179 433.349 648.466 433.52C648.578 433.587 648.709 433.622 648.849 433.641C649.346 433.678 649.782 433.31 649.836 432.823C649.985 431.05 650.119 429.268 650.246 427.46C650.283 426.963 649.89 426.533 649.393 426.496C648.895 426.459 648.466 426.851 648.429 427.349C648.311 429.141 648.187 430.907 648.031 432.654L648.021 432.67ZM575.805 518.228C574.353 517.36 572.919 516.353 571.502 515.246C571.116 514.95 570.536 515.015 570.24 515.402C569.935 515.804 570.009 516.368 570.395 516.664C571.877 517.808 573.374 518.854 574.89 519.76C575.321 520.017 575.881 519.876 576.129 519.461C576.387 519.03 576.261 518.479 575.83 518.221L575.805 518.228ZM554.446 495.228C553.548 493.761 552.646 492.226 551.772 490.643C551.529 490.217 550.974 490.058 550.548 490.301C550.121 490.545 549.963 491.1 550.206 491.526C551.102 493.144 552.019 494.688 552.925 496.181C552.998 496.312 553.116 496.404 553.228 496.471C553.499 496.633 553.866 496.635 554.162 496.466C554.582 496.197 554.715 495.649 554.456 495.213L554.446 495.228ZM595.661 522.9C593.937 523.104 592.216 523.159 590.481 523.054C589.984 523.017 589.554 523.41 589.517 523.907C589.499 524.264 589.684 524.57 589.955 524.732C590.083 524.808 590.214 524.843 590.354 524.862C592.171 524.973 594.042 524.921 595.859 524.707C596.347 524.652 596.706 524.196 596.651 523.708C596.58 523.211 596.139 522.861 595.652 522.916L595.661 522.9ZM647.56 444.281C648.054 444.359 648.522 444.011 648.585 443.507C648.833 441.75 649.075 439.968 649.275 438.182C649.329 437.695 648.971 437.243 648.483 437.189C647.979 437.127 647.543 437.494 647.49 437.982C647.289 439.767 647.067 441.518 646.802 443.265C646.749 443.645 646.931 443.992 647.234 444.173C647.33 444.23 647.451 444.281 647.576 444.29L647.56 444.281ZM650.481 422.101C650.547 420.322 650.582 418.524 650.601 416.717C650.613 416.226 650.21 415.812 649.71 415.816C649.209 415.82 648.805 416.207 648.809 416.707C648.8 418.499 648.759 420.271 648.676 422.041C648.667 422.382 648.837 422.678 649.124 422.85C649.252 422.926 649.399 422.97 649.548 422.973C650.055 422.994 650.469 422.592 650.481 422.101ZM615.625 514.343C615.296 513.952 614.741 513.902 614.35 514.231C612.972 515.378 611.568 516.423 610.139 517.367C609.718 517.635 609.601 518.193 609.886 518.623C609.969 518.738 610.062 518.836 610.173 518.903C610.461 519.075 610.827 519.077 611.133 518.892C612.623 517.92 614.081 516.82 615.503 515.635C615.885 515.321 615.945 514.751 615.616 514.359L615.625 514.343ZM629.275 497.944C628.822 497.652 628.302 497.796 628.029 498.218C627.056 499.737 626.071 501.205 625.051 502.588C624.761 502.999 624.845 503.547 625.248 503.853C625.263 503.862 625.295 503.881 625.311 503.891C625.71 504.129 626.226 504.026 626.497 503.646C627.536 502.232 628.55 500.716 629.532 499.181C629.79 498.75 629.68 498.208 629.259 497.935L629.275 497.944ZM585.389 522.264C583.743 521.865 582.084 521.307 580.46 520.619C579.992 520.425 579.476 520.637 579.266 521.096C579.085 521.508 579.249 521.995 579.632 522.224C579.664 522.243 579.695 522.262 579.743 522.291C581.457 523.011 583.221 523.61 584.956 524.04C585.447 524.16 585.928 523.863 586.048 523.372C586.168 522.881 585.87 522.4 585.379 522.28L585.389 522.264ZM623.079 506.649C622.702 506.338 622.116 506.377 621.804 506.754C620.659 508.127 619.444 509.436 618.245 510.647C617.885 510.995 617.893 511.562 618.241 511.922C618.305 511.96 618.359 512.014 618.423 512.052C618.774 512.262 619.236 512.213 619.525 511.91C620.769 510.661 621.988 509.31 623.177 507.899C623.498 507.506 623.449 506.936 623.072 506.624L623.079 506.649ZM606.823 520.344C606.615 519.895 606.063 519.695 605.62 519.929C604.037 520.694 602.397 521.338 600.785 521.825C600.307 521.973 600.027 522.477 600.175 522.955C600.242 523.169 600.386 523.363 600.578 523.477C600.785 523.601 601.04 523.645 601.305 523.565C603.019 523.052 604.745 522.372 606.414 521.572C606.863 521.364 607.063 520.812 606.829 520.37L606.823 520.344ZM645.875 368.664C645.514 366.911 645.128 365.165 644.726 363.41C644.604 362.925 644.135 362.623 643.635 362.736C643.151 362.858 642.849 363.327 642.961 363.828C643.373 365.567 643.743 367.304 644.097 369.031C644.161 369.286 644.311 369.505 644.519 369.629C644.71 369.744 644.94 369.794 645.169 369.736C645.66 369.64 645.971 369.155 645.875 368.664ZM560.504 503.935C559.456 502.573 558.404 501.144 557.381 499.666C557.103 499.262 556.536 499.161 556.115 499.43C555.711 499.708 555.61 500.276 555.888 500.68C556.934 502.192 558.008 503.656 559.078 505.054C559.155 505.143 559.241 505.216 559.337 505.273C559.64 505.454 560.058 505.444 560.351 505.207C560.748 504.904 560.808 504.333 560.504 503.935ZM642.117 359.188C642.308 359.302 642.564 359.346 642.793 359.288C643.277 359.166 643.573 358.672 643.451 358.187C643.014 356.454 642.551 354.727 642.073 352.991C641.951 352.507 641.447 352.227 640.953 352.365C640.468 352.487 640.189 352.991 640.327 353.485C640.815 355.206 641.261 356.923 641.708 358.64C641.766 358.87 641.925 359.073 642.117 359.188ZM649.794 395.233C649.748 394.729 649.317 394.363 648.813 394.409C648.31 394.455 647.944 394.886 647.99 395.389C648.14 397.168 648.29 398.946 648.392 400.696C648.402 401.005 648.591 401.269 648.83 401.412C648.99 401.508 649.162 401.546 649.363 401.536C649.857 401.506 650.248 401.069 650.203 400.565C650.094 398.79 649.953 396.995 649.787 395.207L649.794 395.233ZM647.895 390.764C648.054 390.859 648.258 390.916 648.453 390.881C648.94 390.826 649.316 390.379 649.244 389.881C649.043 388.116 648.826 386.341 648.577 384.546C648.506 384.049 648.056 383.716 647.568 383.771C647.071 383.842 646.737 384.292 646.793 384.78C647.035 386.548 647.252 388.323 647.447 390.064C647.483 390.366 647.649 390.596 647.888 390.738L647.895 390.764ZM567.558 511.808C566.329 510.64 565.099 509.364 563.891 508.015C563.553 507.64 562.988 507.606 562.613 507.944C562.237 508.283 562.203 508.847 562.542 509.223C563.772 510.607 565.05 511.912 566.318 513.124C566.381 513.162 566.42 513.206 566.484 513.244C566.835 513.454 567.297 513.405 567.596 513.086C567.939 512.728 567.916 512.151 567.558 511.808ZM646.905 373.935C646.809 373.444 646.333 373.116 645.842 373.213C645.352 373.31 645.034 373.769 645.121 374.276C645.44 376.025 645.749 377.791 646.027 379.537C646.072 379.824 646.232 380.028 646.455 380.161C646.631 380.266 646.844 380.307 647.055 380.281C647.552 380.21 647.879 379.734 647.808 379.237C647.54 377.475 647.231 375.709 646.905 373.935Z" fill="#F411CF"/>
<path d="M40.1851 195.579C39.8904 195.796 39.5077 195.792 39.2169 195.627C39.1038 195.562 38.9999 195.482 38.9305 195.378C37.8696 193.898 36.8594 192.403 35.8999 190.895C35.6316 190.464 35.7528 189.913 36.1835 189.645C36.6141 189.377 37.1654 189.498 37.4336 189.928C38.3538 191.393 39.3479 192.878 40.3857 194.324C40.6723 194.723 40.5834 195.292 40.1851 195.579ZM106.936 71.882C107.403 71.699 107.624 71.1614 107.432 70.7099C107.249 70.2422 106.711 70.0219 106.26 70.214C104.575 70.8811 102.924 71.5665 101.304 72.2703C100.853 72.4625 100.632 73.0001 100.824 73.4516C100.905 73.6475 101.039 73.7878 101.201 73.8798C101.443 74.0177 101.734 74.0333 102.006 73.9313C103.616 73.2437 105.268 72.5582 106.927 71.8982L106.936 71.882ZM34.774 185.357C33.9342 183.788 33.1543 182.19 32.4483 180.612C32.24 180.151 31.7093 179.956 31.2578 180.148C30.7971 180.356 30.6021 180.887 30.7943 181.339C31.5142 182.967 32.3172 184.6 33.1801 186.203C33.2633 186.358 33.3904 186.473 33.5358 186.556C33.7943 186.703 34.1263 186.72 34.4096 186.561C34.8472 186.318 35.026 185.778 34.7831 185.341L34.774 185.357ZM87.906 79.4671C87.6885 79.0225 87.1233 78.8507 86.6949 79.0774C85.0687 79.9057 83.484 80.7362 81.9317 81.5852C81.4941 81.8281 81.3314 82.3771 81.5742 82.8147C81.6575 82.969 81.7845 83.0841 81.9299 83.1668C82.1884 83.3139 82.5204 83.3317 82.8037 83.1721C84.3469 82.3393 85.9154 81.4996 87.5163 80.6782C87.9608 80.4607 88.1489 79.9047 87.906 79.4671ZM28.9697 170.677C28.8374 170.195 28.3458 169.894 27.855 170.042C27.3734 170.175 27.0722 170.666 27.2207 171.157C27.6688 172.888 28.1999 174.623 28.807 176.337C28.8789 176.549 29.036 176.724 29.2137 176.825C29.4399 176.954 29.705 176.976 29.9677 176.89C30.4424 176.733 30.6789 176.204 30.5212 175.73C29.928 174.066 29.42 172.366 28.9858 170.686L28.9697 170.677ZM126.48 62.9426C124.751 63.4991 123.065 64.0578 121.378 64.6165C120.904 64.7741 120.651 65.2933 120.809 65.768C120.88 65.9799 121.037 66.1549 121.215 66.256C121.425 66.3755 121.707 66.4073 121.944 66.3284C123.614 65.7606 125.301 65.2019 127.004 64.6524C127.478 64.4947 127.747 63.9847 127.59 63.5101C127.432 63.0354 126.922 62.7666 126.447 62.9243L126.48 62.9426ZM54.6461 209.967C53.3113 208.779 52.0203 207.553 50.7708 206.329C50.4243 205.96 49.8318 205.987 49.4889 206.326C49.1368 206.682 49.1471 207.265 49.512 207.601C50.7685 208.851 52.101 210.08 53.4427 211.292C53.4911 211.32 53.5466 211.373 53.595 211.4C53.9505 211.602 54.4368 211.537 54.7198 211.228C55.0557 210.863 55.0201 210.286 54.6552 209.95L54.6461 209.967ZM117.465 66.9452C117.299 66.4867 116.779 66.2341 116.305 66.3917C114.607 67.0081 112.925 67.6336 111.268 68.2522C110.801 68.4352 110.573 68.9474 110.731 69.4221C110.812 69.6179 110.953 69.7836 111.131 69.8847C111.357 70.0134 111.638 70.0452 111.91 69.9433C113.55 69.3155 115.223 68.7061 116.921 68.0898C117.38 67.9229 117.632 67.4037 117.475 66.9291L117.465 66.9452ZM148.192 57.6328C148.06 57.1512 147.569 56.8501 147.087 56.9824C145.331 57.4374 143.617 57.8947 141.902 58.352C141.42 58.4843 141.135 58.9851 141.268 59.4667C141.321 59.711 141.494 59.8952 141.688 60.0055C141.882 60.1158 142.138 60.1545 142.366 60.0918C144.065 59.6254 145.779 59.1681 147.526 58.7291C148.007 58.5969 148.309 58.1052 148.176 57.6236L148.192 57.6328ZM47.0958 202.527C45.8853 201.196 44.7255 199.852 43.6234 198.519C43.3114 198.128 42.7396 198.08 42.3482 198.392C41.9568 198.704 41.9094 199.276 42.2214 199.667C43.3305 201.026 44.5134 202.404 45.7562 203.753C45.8186 203.832 45.8994 203.877 45.9802 203.923C46.3194 204.116 46.7459 204.081 47.0359 203.797C47.4041 203.451 47.4262 202.886 47.0958 202.527ZM132.133 63.0799C133.817 62.5627 135.518 62.0547 137.251 61.5651C137.732 61.4328 138.001 60.9228 137.885 60.4504C137.753 59.9688 137.243 59.7 136.77 59.8161C135.028 60.3219 133.312 60.8207 131.627 61.3379C131.153 61.4955 130.877 61.9802 131.025 62.471C131.088 62.6991 131.245 62.874 131.439 62.9844C131.649 63.1039 131.905 63.1426 132.142 63.0638L132.133 63.0799ZM34.5381 125.298C34.9743 125.547 35.5066 125.4 35.771 124.973C36.6351 123.455 37.5892 121.966 38.5756 120.496C38.8561 120.078 38.7444 119.522 38.3266 119.242C37.9158 118.987 37.3534 119.073 37.0729 119.491C36.0519 120.984 35.0864 122.531 34.1878 124.073C33.9396 124.509 34.0766 125.057 34.5128 125.305L34.5381 125.298ZM31.1818 134.467C31.8014 132.852 32.5131 131.225 33.2895 129.635C33.5054 129.181 33.3177 128.646 32.8631 128.43C32.4085 128.214 31.874 128.402 31.6581 128.857C30.8633 130.479 30.1401 132.163 29.493 133.827C29.337 134.251 29.4946 134.726 29.8824 134.946C29.9147 134.965 29.9631 134.992 29.9955 135.011C30.4684 135.194 30.989 134.956 31.1634 134.499L31.1818 134.467ZM40.4287 116.375C40.4287 116.375 40.5094 116.421 40.5417 116.439C40.9295 116.66 41.4342 116.562 41.7033 116.202C42.7591 114.835 43.8908 113.447 45.0619 112.103C45.3817 111.729 45.3461 111.153 44.972 110.833C44.5979 110.513 44.0216 110.549 43.7018 110.923C42.5124 112.299 41.3552 113.694 40.2811 115.093C39.9683 115.492 40.0546 116.055 40.4379 116.359L40.4287 116.375ZM47.3673 108.24C47.3673 108.24 47.4782 108.346 47.5428 108.382C47.8982 108.585 48.3431 108.517 48.6331 108.233C49.832 106.99 51.1231 105.736 52.4281 104.533C52.7964 104.186 52.8184 103.621 52.4719 103.253C52.1254 102.885 51.5605 102.863 51.1923 103.209C49.8689 104.445 48.5685 105.715 47.3351 106.981C46.983 107.337 46.9933 107.92 47.3581 108.256L47.3673 108.24ZM91.4659 78.2848C91.7082 78.4227 92.0311 78.4567 92.3052 78.3133C93.8854 77.5657 95.4909 76.8112 97.138 76.0589C97.5988 75.8506 97.7938 75.32 97.5854 74.8593C97.3771 74.3985 96.8465 74.2035 96.3857 74.4119C94.7225 75.155 93.1169 75.9095 91.5183 76.6893C91.0738 76.9069 90.8788 77.4375 91.0871 77.8982C91.1612 78.0687 91.2951 78.2091 91.4567 78.301L91.4659 78.2848ZM27.2379 160.303C27.1978 159.809 26.7683 159.437 26.2588 159.467C25.7655 159.508 25.3928 159.937 25.4237 160.446C25.5606 162.235 25.7876 164.054 26.0836 165.826C26.1348 166.112 26.3059 166.338 26.532 166.466C26.7097 166.568 26.9242 166.604 27.134 166.574C27.6295 166.492 27.9629 166.019 27.8722 165.54C27.5739 163.809 27.3609 162.041 27.2287 160.319L27.2379 160.303ZM63.5197 94.2482C63.6053 94.361 63.693 94.4324 63.8061 94.4967C64.113 94.6714 64.4888 94.6499 64.7743 94.4488C66.1857 93.4341 67.6387 92.4217 69.1331 91.4115C69.5476 91.1341 69.6527 90.5736 69.3752 90.1592C69.0978 89.7447 68.5374 89.6396 68.1229 89.917C66.6031 90.9342 65.1248 91.9536 63.7042 92.9845C63.3059 93.2711 63.217 93.8407 63.5036 94.239L63.5197 94.2482ZM29.4894 139.47C29.6315 138.995 29.3677 138.482 28.8833 138.356C28.4082 138.214 27.9107 138.487 27.7686 138.962C27.2507 140.699 26.8136 142.482 26.4617 144.228C26.3909 144.615 26.5784 145 26.9015 145.184C26.9822 145.23 27.063 145.276 27.1622 145.289C27.6396 145.39 28.1232 145.066 28.2238 144.589C28.5734 142.884 28.9991 141.159 29.4894 139.47ZM60.6832 96.3768C60.3713 95.9854 59.8086 95.9218 59.4264 96.2177C57.9921 97.3477 56.5993 98.4799 55.2481 99.6144C54.8729 99.9355 54.8255 100.507 55.1466 100.883C55.209 100.961 55.2968 101.032 55.3937 101.087C55.7168 101.271 56.1341 101.252 56.431 100.993C57.7569 99.8657 59.1244 98.7404 60.5495 97.6266C60.9408 97.3146 61.0044 96.752 60.7086 96.3698L60.6832 96.3768ZM27.4032 149.789C27.4553 149.284 27.1041 148.849 26.5991 148.797C26.0941 148.745 25.659 149.096 25.6069 149.601C25.4188 151.397 25.3045 153.214 25.2732 155.036C25.2715 155.377 25.4473 155.669 25.7381 155.835C25.8673 155.908 26.0149 155.95 26.1648 155.949C26.672 155.96 27.0679 155.565 27.0785 155.058C27.1145 153.303 27.2173 151.544 27.394 149.805L27.4032 149.789ZM78.5087 84.5563C78.2659 84.1187 77.7077 83.9722 77.2609 84.2312C75.6879 85.1539 74.1564 86.0789 72.6503 86.9969C72.2196 87.2652 72.0984 87.8164 72.3666 88.2471C72.443 88.376 72.5538 88.4819 72.6831 88.5554C72.9577 88.7117 73.3151 88.7226 73.6075 88.5468C75.0975 87.6196 76.6198 86.7108 78.1675 85.795C78.6051 85.5521 78.7516 84.9939 78.4834 84.5633L78.5087 84.5563ZM183.796 251.762C182.007 251.749 180.236 251.704 178.466 251.658C177.958 251.648 177.546 252.034 177.536 252.541C177.534 252.882 177.717 253.2 177.992 253.356C178.121 253.43 178.268 253.471 178.418 253.471C180.189 253.516 181.985 253.554 183.79 253.576C184.281 253.578 184.703 253.176 184.704 252.685C184.705 252.194 184.303 251.772 183.812 251.771L183.796 251.762ZM162.482 250.733C160.693 250.57 158.929 250.401 157.174 250.215C156.669 250.163 156.234 250.514 156.182 251.019C156.145 251.383 156.335 251.726 156.642 251.901C156.739 251.956 156.861 252.004 156.986 252.011C158.757 252.206 160.546 252.369 162.336 252.532C162.824 252.574 163.269 252.207 163.312 251.718C163.355 251.229 162.987 250.785 162.498 250.742L162.482 250.733ZM173.133 251.447C171.339 251.367 169.563 251.255 167.813 251.136C167.315 251.109 166.887 251.486 166.844 251.975C166.817 252.323 167.016 252.65 167.307 252.815C167.42 252.88 167.551 252.912 167.692 252.928C169.467 253.04 171.243 253.152 173.053 253.241C173.551 253.267 173.963 252.882 173.99 252.384C174.016 251.886 173.64 251.457 173.133 251.447ZM130.863 245.979C129.11 245.602 127.375 245.192 125.666 244.775C125.182 244.65 124.691 244.948 124.581 245.441C124.485 245.836 124.68 246.246 125.019 246.439C125.084 246.476 125.164 246.522 125.247 246.526C126.973 246.952 128.716 247.345 130.485 247.732C130.979 247.841 131.453 247.534 131.563 247.04C131.673 246.547 131.365 246.072 130.872 245.963L130.863 245.979ZM151.879 249.597C150.101 249.377 148.342 249.124 146.591 248.855C146.096 248.787 145.628 249.12 145.56 249.616C145.498 249.987 145.695 250.355 146.002 250.53C146.099 250.585 146.205 250.624 146.32 250.647C148.071 250.916 149.856 251.162 151.634 251.382C152.129 251.45 152.59 251.092 152.633 250.603C152.701 250.108 152.343 249.647 151.854 249.604L151.879 249.597ZM141.333 248.023C139.56 247.72 137.821 247.393 136.082 247.067C135.595 246.982 135.121 247.29 135.011 247.783C134.94 248.171 135.128 248.556 135.451 248.739C135.532 248.785 135.613 248.831 135.737 248.838C137.492 249.174 139.247 249.509 141.021 249.813C141.507 249.897 141.975 249.564 142.059 249.078C142.144 248.591 141.811 248.124 141.324 248.039L141.333 248.023ZM194.473 251.678C192.672 251.723 190.906 251.744 189.14 251.766C188.649 251.764 188.244 252.176 188.243 252.667C188.241 253.008 188.426 253.284 188.701 253.44C188.83 253.514 188.994 253.564 189.153 253.548C190.935 253.536 192.726 253.507 194.527 253.462C195.027 253.447 195.416 253.027 195.417 252.536C195.403 252.036 194.982 251.647 194.491 251.646L194.473 251.678ZM215.778 250.392C213.996 250.554 212.224 250.7 210.451 250.847C209.958 250.887 209.585 251.316 209.616 251.826C209.632 252.134 209.827 252.395 210.069 252.533C210.214 252.615 210.403 252.659 210.579 252.651C212.351 252.505 214.14 252.368 215.931 252.19C216.425 252.15 216.79 251.695 216.75 251.202C216.71 250.708 216.255 250.343 215.762 250.383L215.778 250.392ZM227.395 250.009C227.329 249.522 226.875 249.157 226.388 249.222C224.611 249.451 222.852 249.648 221.094 249.845C220.591 249.901 220.235 250.34 220.291 250.842C220.333 251.144 220.495 251.386 220.737 251.524C220.899 251.616 221.088 251.659 221.288 251.645C223.047 251.448 224.831 251.245 226.608 251.015C227.095 250.95 227.46 250.495 227.395 250.009ZM205.128 251.218C203.332 251.33 201.571 251.418 199.794 251.498C199.293 251.512 198.905 251.933 198.935 252.442C198.943 252.767 199.128 253.043 199.386 253.191C199.532 253.273 199.696 253.324 199.871 253.316C201.648 253.237 203.435 253.142 205.231 253.03C205.74 252.999 206.113 252.57 206.073 252.076C206.033 251.583 205.612 251.194 205.119 251.234L205.128 251.218ZM71.6677 222.711C70.1536 221.763 68.674 220.793 67.2128 219.791C66.7972 219.469 66.2396 219.622 65.9682 220.023C65.6877 220.441 65.7994 220.997 66.2011 221.268C67.6623 222.271 69.1742 223.259 70.7045 224.216L70.7368 224.234C71.1568 224.473 71.6799 224.343 71.9513 223.941C72.2156 223.514 72.0878 222.95 71.6769 222.694L71.6677 222.711ZM178.855 51.8549C179.35 51.7733 179.667 51.2908 179.586 50.7953C179.495 50.3159 179.022 49.9825 178.526 50.0641C176.752 50.4016 175.002 50.7322 173.269 51.0719C172.781 51.1789 172.456 51.6359 172.554 52.1407C172.615 52.4103 172.769 52.6267 172.996 52.7554C173.173 52.8565 173.404 52.9022 173.623 52.8557C175.356 52.516 177.105 52.1854 178.88 51.8479L178.855 51.8549ZM168.001 52.1374C166.233 52.5003 164.482 52.8723 162.762 53.2628C162.274 53.3697 161.956 53.8521 162.063 54.3407C162.124 54.6104 162.288 54.8106 162.498 54.9301C162.692 55.0405 162.906 55.077 163.141 55.0396C164.861 54.6492 166.603 54.2933 168.371 53.9304C168.859 53.8235 169.167 53.3572 169.069 52.8525C168.963 52.3639 168.48 52.0466 167.992 52.1536L168.001 52.1374ZM120.502 243.441C118.779 242.974 117.065 242.49 115.376 242C114.901 241.858 114.403 242.131 114.261 242.606C114.14 243.007 114.316 243.45 114.671 243.652C114.736 243.689 114.784 243.716 114.858 243.737C116.563 244.236 118.293 244.729 120.032 245.205C120.517 245.331 121.014 245.058 121.14 244.574C121.266 244.09 120.977 243.583 120.509 243.466L120.502 243.441ZM80.8718 228.033C79.6579 227.385 78.4694 226.731 77.3062 226.069L76.2238 225.453C75.8567 225.158 75.2392 225.342 74.991 225.778C74.7428 226.214 74.8798 226.762 75.316 227.011L76.4145 227.636C77.5939 228.307 78.7893 228.987 80.0286 229.628C80.4648 229.876 81.0155 229.698 81.2475 229.252C81.4957 228.816 81.3242 228.291 80.8718 228.033ZM62.9005 216.695C61.4599 215.619 60.07 214.529 58.7054 213.431C58.3222 213.128 57.7459 213.163 57.433 213.563C57.104 213.953 57.165 214.522 57.5644 214.835C58.936 215.958 60.3582 217.066 61.8149 218.152C61.8472 218.17 61.8796 218.189 61.9119 218.207C62.2996 218.428 62.8043 218.33 63.0826 217.954C63.3793 217.545 63.293 216.983 62.9005 216.695ZM157.538 54.4389C155.784 54.8524 154.03 55.266 152.318 55.6818C151.837 55.8141 151.545 56.2895 151.652 56.7781C151.721 57.0316 151.869 57.2227 152.079 57.3422C152.273 57.4525 152.504 57.4982 152.732 57.4355C154.444 57.0197 156.182 56.597 157.926 56.1996C158.415 56.0926 158.716 55.601 158.609 55.1124C158.502 54.6238 158.01 54.3227 157.522 54.4297L157.538 54.4389ZM100.252 236.858C98.5884 236.211 96.9341 235.548 95.3052 234.878C94.8415 234.678 94.3139 234.891 94.1303 235.364C93.949 235.795 94.1227 236.279 94.5105 236.5C94.5428 236.518 94.5751 236.537 94.6074 236.555C96.2433 237.251 97.8975 237.914 99.6025 238.563C100.075 238.747 100.596 238.508 100.77 238.052C100.954 237.579 100.732 237.067 100.259 236.884L100.252 236.858ZM110.292 240.411C108.599 239.854 106.905 239.297 105.24 238.691C104.774 238.533 104.253 238.772 104.095 239.238C103.939 239.662 104.131 240.114 104.503 240.325C104.551 240.353 104.6 240.38 104.648 240.408C106.323 240.997 108.023 241.58 109.742 242.13C110.208 242.288 110.721 242.024 110.889 241.542C111.047 241.076 110.783 240.563 110.317 240.404L110.292 240.411ZM190.132 48.9479C190.051 48.4524 189.578 48.1189 189.098 48.2097C187.326 48.5057 185.553 48.8017 183.813 49.1161C183.318 49.1977 182.984 49.671 183.082 50.1757C183.133 50.4615 183.304 50.6871 183.531 50.8158C183.708 50.9169 183.923 50.9534 184.133 50.9231C185.873 50.6087 187.62 50.3196 189.392 50.0236C189.888 49.942 190.221 49.4688 190.13 48.9894L190.132 48.9479ZM90.409 232.733C88.7754 231.996 87.1763 231.236 85.5956 230.443C85.141 230.227 84.6065 230.415 84.3836 230.844C84.1769 231.283 84.3323 231.799 84.7362 232.029L84.7847 232.056C86.3746 232.833 88.006 233.611 89.6558 234.358C90.1104 234.574 90.6379 234.36 90.8538 233.906C91.0697 233.451 90.8475 232.94 90.4021 232.708L90.409 232.733Z" fill="#10B1AC"/>
<path d="M227.673 45.2878C232.375 44.5415 238.005 42.8045 237.834 41.788C237.664 40.7716 231.783 40.8468 227.072 41.6093C226.643 41.6862 226.224 41.7469 225.82 41.8168C225.31 41.3981 224.241 40.5332 222.877 39.4359C222.893 39.4451 222.925 39.4635 222.941 39.4727L224.209 39.2744C224.368 39.258 224.469 39.0803 224.42 38.9028L224.22 37.6767C224.196 37.4923 224.053 37.368 223.885 37.4006L222.617 37.5989C222.617 37.5989 222.498 37.659 222.445 37.7145L220.967 37.9431C219.81 37.0068 218.55 35.9901 217.305 34.9825L218.548 34.7912C218.707 34.7748 218.808 34.5971 218.759 34.4197L218.559 33.1935C218.535 33.0091 218.392 32.8849 218.224 32.9174L216.956 33.1157C216.956 33.1157 216.836 33.1759 216.783 33.2313L215.357 33.446C212.189 30.8949 209.522 28.7787 209.407 28.7558C209.119 28.6987 207.268 29.0571 207.268 29.0571C206.823 29.1248 206.484 29.2315 206.482 29.273C206.496 29.3237 206.989 29.2836 207.409 29.2229L212.489 35.2149C212.144 35.2962 211.904 35.4166 211.916 35.5088C211.935 35.6263 212.308 35.6464 212.737 35.5695L212.788 35.5556L213.781 36.7411C213.461 36.8155 213.221 36.9358 213.233 37.028C213.252 37.1456 213.625 37.1656 214.054 37.0888L214.971 38.1453L215.381 39.0414C214.993 39.1205 214.687 39.2456 214.699 39.3378C214.717 39.4553 215.091 39.4754 215.52 39.3985L215.536 39.4077L216.357 41.1584C215.97 41.2375 215.664 41.3626 215.692 41.464C215.71 41.5815 216.084 41.6016 216.513 41.5247L217.258 43.1465C214.107 43.6847 212.863 43.9176 210.528 44.2999C208.177 44.673 205.935 45.1936 204.066 45.7341C202.325 44.3586 198.919 41.5866 198.919 41.5866L197.582 41.6813L199.868 47.1735C199.467 47.3517 199.151 47.4929 198.944 47.6316C197.983 47.8547 197.391 48.031 197.403 48.1232C197.414 48.2154 198.014 48.2143 198.968 48.1158C199.215 48.1706 199.588 48.1907 200.061 48.2244L199.581 54.2173L200.887 53.913C200.887 53.913 203.43 49.9705 204.617 48.1862C206.502 48.1044 208.674 47.9713 210.974 47.762C213.888 47.3025 215.179 47.1388 217.864 46.742L217.653 48.5038C217.199 48.5876 216.867 48.7196 216.885 48.8371C216.897 48.9293 217.22 48.9633 217.63 48.9188L217.401 50.8628L217.385 50.8536C216.931 50.9374 216.59 51.0856 216.618 51.1869C216.629 51.2791 216.968 51.3223 217.363 51.2686L217.261 52.2371L216.733 53.5407C216.288 53.6083 215.947 53.7565 215.965 53.8741C215.977 53.9663 216.233 54.005 216.577 53.9652L215.991 55.4072L215.959 55.3888C215.505 55.4726 215.164 55.6208 215.183 55.7383C215.194 55.8305 215.476 55.8623 215.819 55.8225L212.84 63.088C212.427 63.174 211.939 63.281 211.936 63.3225C211.95 63.3732 212.301 63.3587 212.746 63.291C212.746 63.291 214.631 63.0593 214.864 62.9137C214.958 62.8605 216.834 60.0144 219.064 56.6212L220.491 56.4065C220.491 56.4065 220.62 56.4801 220.687 56.4753L221.955 56.2771C222.114 56.2606 222.215 56.0829 222.166 55.9055L221.966 54.6793C221.943 54.4949 221.799 54.3707 221.631 54.4033L220.389 54.5946C221.26 53.2512 222.131 51.9078 222.957 50.6452L224.434 50.4165C224.434 50.4165 224.564 50.4901 224.63 50.4854L225.898 50.2871C226.057 50.2707 226.158 50.093 226.109 49.9155L225.909 48.6893C225.886 48.505 225.742 48.3807 225.574 48.4133L224.307 48.6116C224.307 48.6116 224.288 48.6439 224.237 48.6578C225.189 47.2105 225.925 46.068 226.288 45.5047C226.692 45.4348 227.111 45.3741 227.556 45.3065L227.673 45.2878Z" fill="#10B1AC"/>
<path d="M589.442 254.867C586.549 251.082 582.33 246.981 581.509 247.595C580.694 248.234 583.57 253.351 586.462 257.136C586.728 257.489 586.987 257.817 587.245 258.145C587.122 258.786 586.87 260.151 586.558 261.869C586.542 261.86 586.561 261.828 586.539 261.793L585.756 260.784C585.656 260.66 585.465 260.654 585.316 260.759L584.326 261.51C584.176 261.616 584.145 261.814 584.244 261.938L585.027 262.947C585.027 262.947 585.138 263.013 585.202 263.052L586.097 264.236C585.829 265.699 585.526 267.294 585.242 268.856L584.475 267.857C584.376 267.733 584.185 267.727 584.035 267.832L583.045 268.583C582.896 268.689 582.864 268.887 582.963 269.011L583.746 270.02C583.746 270.02 583.858 270.086 583.922 270.125L584.794 271.274C584.069 275.279 583.476 278.627 583.502 278.729C583.573 279.009 584.78 280.467 584.78 280.467C585.046 280.82 585.301 281.081 585.346 281.043C585.365 281.011 585.112 280.6 584.863 280.257L587.711 272.951C587.941 273.218 588.171 273.377 588.225 273.323C588.314 273.246 588.164 272.918 587.898 272.565L587.867 272.546L588.434 271.088C588.658 271.33 588.862 271.495 588.942 271.434C589.031 271.358 588.881 271.03 588.615 270.676L589.123 269.356L589.714 268.583C589.967 268.885 590.225 269.105 590.314 269.028C590.403 268.951 590.253 268.623 589.988 268.27L589.972 268.261L591.148 266.69C591.4 266.992 591.653 267.186 591.732 267.125C591.821 267.049 591.671 266.721 591.406 266.367L591.39 266.358L592.464 264.921C594.442 267.445 595.245 268.422 596.68 270.297C598.13 272.181 599.661 273.897 601.031 275.3C600.643 277.471 599.826 281.812 599.826 281.812L600.558 282.942L604.298 278.312C604.636 278.579 604.93 278.776 605.154 278.91C605.815 279.651 606.249 280.084 606.319 280.039C606.399 279.978 606.105 279.456 605.58 278.667C605.506 278.428 605.366 278.084 605.148 277.651L610.632 275.211L609.732 274.218C609.732 274.218 605.048 273.867 602.928 273.683C601.965 272.069 600.795 270.222 599.538 268.302C597.739 265.95 596.975 264.909 595.354 262.729L597.004 262.069C597.27 262.422 597.56 262.661 597.649 262.584C597.729 262.523 597.601 262.23 597.368 261.896L599.189 261.166L599.205 261.175C599.471 261.529 599.761 261.767 599.85 261.69C599.93 261.63 599.811 261.321 599.569 261.002L600.48 260.637L601.891 260.485C602.157 260.838 602.447 261.076 602.536 261C602.616 260.939 602.517 260.706 602.338 260.426L603.883 260.267L603.915 260.286C604.171 260.655 604.471 260.878 604.551 260.817C604.63 260.756 604.525 260.499 604.329 260.209L612.128 259.368C612.387 259.696 612.726 260.071 612.761 260.049C612.805 260.01 612.62 259.705 612.355 259.351C612.355 259.351 611.287 257.804 611.031 257.652C610.936 257.595 607.54 257.298 603.497 256.962L602.625 255.813C602.625 255.813 602.628 255.663 602.59 255.619L601.807 254.61C601.707 254.486 601.516 254.48 601.367 254.585L600.377 255.336C600.227 255.442 600.196 255.639 600.295 255.763L601.062 256.763C599.471 256.635 597.864 256.498 596.372 256.386L595.477 255.202C595.477 255.202 595.48 255.052 595.441 255.008L594.658 253.999C594.559 253.875 594.368 253.869 594.218 253.974L593.228 254.725C593.079 254.831 593.047 255.029 593.146 255.153L593.929 256.162C593.929 256.162 593.977 256.19 593.993 256.2C592.278 256.063 590.91 255.96 590.247 255.911C589.988 255.583 589.739 255.239 589.474 254.886L589.442 254.867Z" fill="#F411CF"/>
<g filter="url(#filter0_dddd_0_995)">
<rect x="320" y="614" width="50" height="50" rx="25" fill="#2FA6D9"/>
<path fill-rule="evenodd" clip-rule="evenodd" d="M345 648.45L345.797 649.191C345.692 649.289 345.568 649.367 345.431 649.42C345.294 649.473 345.148 649.5 344.999 649.5C344.851 649.5 344.705 649.473 344.568 649.42C344.431 649.367 344.307 649.289 344.202 649.191L344.196 649.184L344.176 649.166L344.107 649.1C343.71 648.718 343.32 648.331 342.937 647.938C341.974 646.954 341.053 645.935 340.174 644.885C339.17 643.678 338.144 642.313 337.365 640.964C336.602 639.642 336 638.21 336 636.9C336 632.134 340.041 628.5 345 628.5C349.959 628.5 354 632.134 354 636.9C354 638.21 353.398 639.642 352.635 640.963C351.856 642.314 350.831 643.678 349.826 644.885C348.597 646.355 347.284 647.762 345.893 649.1L345.824 649.166L345.804 649.184L345.798 649.19L345 648.45ZM345 640.05C345.895 640.05 346.754 639.718 347.386 639.127C348.019 638.537 348.375 637.735 348.375 636.9C348.375 636.064 348.019 635.263 347.386 634.673C346.754 634.082 345.895 633.75 345 633.75C344.105 633.75 343.246 634.082 342.614 634.673C341.981 635.263 341.625 636.064 341.625 636.9C341.625 637.735 341.981 638.537 342.614 639.127C343.246 639.718 344.105 640.05 345 640.05Z" fill="white"/>
</g>
<g filter="url(#filter1_dddd_0_995)">
<rect x="356" y="49.1929" width="50" height="50" rx="25" transform="rotate(-79.6911 356 49.1929)" fill="#FACD49"/>
<path d="M379.706 18.0819L394.336 26.4752C394.7 26.6786 394.992 26.9903 395.169 27.3664C395.346 27.7426 395.401 28.1644 395.325 28.5725C395.256 28.977 395.063 29.3501 394.772 29.6406C394.481 29.931 394.107 30.1245 393.7 30.1944L387.901 31.279L386.662 29.4995L384.658 26.6222C384.506 26.4046 384.274 26.2556 384.013 26.208C383.751 26.1604 383.481 26.2181 383.263 26.3684C383.045 26.5187 382.895 26.7493 382.848 27.0095C382.801 27.2696 382.859 27.538 383.011 27.7556L385.014 30.6329L386.256 32.4533L383.185 37.4552C382.99 37.835 382.677 38.1421 382.293 38.3308C381.908 38.5196 381.473 38.5801 381.051 38.5033C380.629 38.4265 380.242 38.2165 379.949 37.9045C379.656 37.5925 379.471 37.195 379.422 36.7709L376.678 20.1652C376.596 19.7819 376.629 19.3831 376.774 19.019C376.919 18.6549 377.169 18.3418 377.493 18.1191C377.816 17.8964 378.199 17.774 378.593 17.7674C378.987 17.7608 379.374 17.8702 379.706 18.0819Z" fill="white"/>
</g>
<defs>
<filter id="filter0_dddd_0_995" x="311" y="612" width="68" height="83" filterUnits="userSpaceOnUse" color-interpolation-filters="sRGB">
<feFlood flood-opacity="0" result="BackgroundImageFix"/>
<feColorMatrix in="SourceAlpha" type="matrix" values="0 0 0 0 0 0 0 0 0 0 0 0 0 0 0 0 0 0 127 0" result="hardAlpha"/>
<feOffset dy="1"/>
<feGaussianBlur stdDeviation="1.5"/>
<feColorMatrix type="matrix" values="0 0 0 0 0.54902 0 0 0 0 0.54902 0 0 0 0 0.54902 0 0 0 0.1 0"/>
<feBlend mode="normal" in2="BackgroundImageFix" result="effect1_dropShadow_0_995"/>
<feColorMatrix in="SourceAlpha" type="matrix" values="0 0 0 0 0 0 0 0 0 0 0 0 0 0 0 0 0 0 127 0" result="hardAlpha"/>
<feOffset dy="6"/>
<feGaussianBlur stdDeviation="3"/>
<feColorMatrix type="matrix" values="0 0 0 0 0.54902 0 0 0 0 0.54902 0 0 0 0 0.54902 0 0 0 0.09 0"/>
<feBlend mode="normal" in2="effect1_dropShadow_0_995" result="effect2_dropShadow_0_995"/>
<feColorMatrix in="SourceAlpha" type="matrix" values="0 0 0 0 0 0 0 0 0 0 0 0 0 0 0 0 0 0 127 0" result="hardAlpha"/>
<feOffset dy="12"/>
<feGaussianBlur stdDeviation="3.5"/>
<feColorMatrix type="matrix" values="0 0 0 0 0.54902 0 0 0 0 0.54902 0 0 0 0 0.54902 0 0 0 0.05 0"/>
<feBlend mode="normal" in2="effect2_dropShadow_0_995" result="effect3_dropShadow_0_995"/>
<feColorMatrix in="SourceAlpha" type="matrix" values="0 0 0 0 0 0 0 0 0 0 0 0 0 0 0 0 0 0 127 0" result="hardAlpha"/>
<feOffset dy="22"/>
<feGaussianBlur stdDeviation="4.5"/>
<feColorMatrix type="matrix" values="0 0 0 0 0.54902 0 0 0 0 0.54902 0 0 0 0 0.54902 0 0 0 0.01 0"/>
<feBlend mode="normal" in2="effect3_dropShadow_0_995" result="effect4_dropShadow_0_995"/>
<feBlend mode="normal" in="SourceGraphic" in2="effect4_dropShadow_0_995" result="shape"/>
</filter>
<filter id="filter1_dddd_0_995" x="347" y="-2" width="76.1406" height="91.1406" filterUnits="userSpaceOnUse" color-interpolation-filters="sRGB">
<feFlood flood-opacity="0" result="BackgroundImageFix"/>
<feColorMatrix in="SourceAlpha" type="matrix" values="0 0 0 0 0 0 0 0 0 0 0 0 0 0 0 0 0 0 127 0" result="hardAlpha"/>
<feOffset dy="1"/>
<feGaussianBlur stdDeviation="1.5"/>
<feColorMatrix type="matrix" values="0 0 0 0 0.54902 0 0 0 0 0.54902 0 0 0 0 0.54902 0 0 0 0.1 0"/>
<feBlend mode="normal" in2="BackgroundImageFix" result="effect1_dropShadow_0_995"/>
<feColorMatrix in="SourceAlpha" type="matrix" values="0 0 0 0 0 0 0 0 0 0 0 0 0 0 0 0 0 0 127 0" result="hardAlpha"/>
<feOffset dy="6"/>
<feGaussianBlur stdDeviation="3"/>
<feColorMatrix type="matrix" values="0 0 0 0 0.54902 0 0 0 0 0.54902 0 0 0 0 0.54902 0 0 0 0.09 0"/>
<feBlend mode="normal" in2="effect1_dropShadow_0_995" result="effect2_dropShadow_0_995"/>
<feColorMatrix in="SourceAlpha" type="matrix" values="0 0 0 0 0 0 0 0 0 0 0 0 0 0 0 0 0 0 127 0" result="hardAlpha"/>
<feOffset dy="13"/>
<feGaussianBlur stdDeviation="4"/>
<feColorMatrix type="matrix" values="0 0 0 0 0.54902 0 0 0 0 0.54902 0 0 0 0 0.54902 0 0 0 0.05 0"/>
<feBlend mode="normal" in2="effect2_dropShadow_0_995" result="effect3_dropShadow_0_995"/>
<feColorMatrix in="SourceAlpha" type="matrix" values="0 0 0 0 0 0 0 0 0 0 0 0 0 0 0 0 0 0 127 0" result="hardAlpha"/>
<feOffset dy="22"/>
<feGaussianBlur stdDeviation="4.5"/>
<feColorMatrix type="matrix" values="0 0 0 0 0.54902 0 0 0 0 0.54902 0 0 0 0 0.54902 0 0 0 0.01 0"/>
<feBlend mode="normal" in2="effect3_dropShadow_0_995" result="effect4_dropShadow_0_995"/>
<feBlend mode="normal" in="SourceGraphic" in2="effect4_dropShadow_0_995" result="shape"/>
</filter>
</defs>
</svg>
